<?xml version="1.0" standalone="no"?>
<!DOCTYPE svg PUBLIC "-//W3C//DTD SVG 20010904//EN"
 "http://www.w3.org/TR/2001/REC-SVG-20010904/DTD/svg10.dtd">
<svg version="1.0" xmlns="http://www.w3.org/2000/svg"
 width="1179.000000pt" height="1280.000000pt" viewBox="0 0 1179.000000 1280.000000"
 preserveAspectRatio="xMidYMid meet">
<metadata>
Created by potrace 1.15, written by Peter Selinger 2001-2017
</metadata>
<g transform="translate(0.000000,1280.000000) scale(0.100000,-0.100000)"
fill="#000000" stroke="none">
<path d="M3411 10449 c-425 -55 -759 -431 -960 -1078 -182 -587 -230 -1197
-130 -1659 41 -186 123 -397 223 -565 96 -163 174 -257 416 -497 285 -284 386
-412 440 -558 20 -53 20 -69 20 -3073 l0 -3019 125 0 125 0 0 3028 -1 3027 45
90 c70 141 160 251 396 485 242 240 293 298 392 449 171 263 273 563 309 910
27 265 -3 673 -75 1006 -226 1042 -678 1538 -1325 1454z"/>
<path d="M6235 10450 c-12 -20 -13 -62 -25 -975 -9 -696 -21 -1383 -34 -1955
-5 -207 -16 -286 -46 -322 l-19 -23 -16 40 c-29 68 -33 144 -45 770 -6 336
-15 844 -20 1130 -5 286 -10 678 -11 870 -1 362 -6 456 -25 462 -13 4 -26 -40
-55 -182 -19 -92 -21 -158 -29 -835 -15 -1215 -35 -1903 -61 -2074 -29 -189
-95 -214 -187 -71 l-25 40 12 1180 c7 649 16 1295 20 1436 9 273 1 473 -18
492 -17 17 -37 -13 -62 -93 -28 -91 -66 -520 -114 -1305 -8 -137 -26 -419 -40
-625 -60 -899 -52 -1343 30 -1685 44 -187 102 -312 195 -420 193 -224 310
-507 340 -820 7 -73 10 -1023 10 -2795 l0 -2685 67 -3 c38 -2 87 0 110 3 l43
6 3 2772 3 2772 21 95 c60 266 157 470 304 642 129 149 194 307 238 578 49
292 52 796 11 1410 -11 168 -34 519 -50 780 -58 912 -83 1186 -116 1291 -29
91 -46 111 -66 77 -17 -29 -17 -307 0 -1133 6 -335 12 -918 12 -1296 l0 -686
-31 -47 c-37 -55 -80 -82 -108 -66 -29 15 -58 103 -70 210 -17 149 -29 513
-41 1200 -27 1610 -27 1586 -50 1694 -26 123 -43 166 -55 146z"/>
<path d="M8272 10435 c-81 -35 -206 -209 -262 -364 -98 -271 -191 -743 -354
-1806 -114 -743 -135 -930 -143 -1282 -12 -567 64 -885 296 -1230 108 -160
200 -264 314 -356 151 -121 174 -160 197 -327 24 -170 29 -714 30 -2837 l0
-2233 90 0 90 0 0 5147 0 5146 -32 50 c-62 96 -141 129 -226 92z"/>
</g>
</svg>
